<svg width="32" height="32" viewBox="0 0 32 32" fill="none" xmlns="http://www.w3.org/2000/svg">
  <rect width="32" height="32" rx="6" fill="#1E40AF"/>
  <path d="M8 10C8 8.89543 8.89543 8 8 8H6C5.79086 8 4.79086 8.89543 4.79086 10V22C4.79086 23.1046 5.79086 24 7 24H8C9.10457 24 10.1046 23.1046 10.1046 22V10C10.1046 8.89543 9.10457 8 8 8Z" fill="white"/>
  <path d="M14 10C14 8.89543 14.8954 8 16 8H14C12.8954 8 11.8954 8.89543 11.8954 10V22C11.8954 23.1046 12.8954 24 14 24H14C15.1046 24 16.1046 23.1046 16.1046 22V10C16.1046 8.89543 15.1046 8 14 8Z" fill="white"/>
  <path d="M20 10C20 8.89543 20.8954 8 22 8H20C17.8954 8 16.8954 8.89543 16.8954 10V22C16.8954 23.1046 17.8954 24 19 24H20C21.1046 24 22.1046 23.1046 22.1046 22V10C22.1046 8.89543 21.1046 8 20 8Z" fill="white"/>
  <path d="M26 10C26 8.89543 26.8954 8 28 8H26C23.8954 8 22.8954 8.89543 22.8954 10V22C22.8954 23.1046 23.8954 24 25 24H26C27.1046 24 28.1046 23.1046 28.1046 22V10C28.1046 8.89543 27.1046 8 26 8Z" fill="white"/>
  <circle cx="6" cy="18" r="2" fill="#F59E0B"/>
  <circle cx="14" cy="18" r="2" fill="#F59E0B"/>
  <circle cx="22" cy="18" r="2" fill="#F59E0B"/>
  <circle cx="26" cy="18" r="2" fill="#F59E0B"/>
</svg>
